<svg width="640" height="640" viewBox="0 0 640 640" fill="none" xmlns="http://www.w3.org/2000/svg">
  <defs>
    <linearGradient id="bgGlow" x1="120" y1="88" x2="532" y2="552" gradientUnits="userSpaceOnUse">
      <stop stop-color="#F5FBF7"/>
      <stop offset="1" stop-color="#EEF3FA"/>
    </linearGradient>
    <linearGradient id="capFill" x1="218" y1="108" x2="420" y2="200" gradientUnits="userSpaceOnUse">
      <stop stop-color="#8DDFB0"/>
      <stop offset="1" stop-color="#71C89A"/>
    </linearGradient>
    <linearGradient id="bodyFill" x1="202" y1="172" x2="444" y2="500" gradientUnits="userSpaceOnUse">
      <stop stop-color="#8B9AAD"/>
      <stop offset="1" stop-color="#6B7A8D"/>
    </linearGradient>
    <linearGradient id="limbFill" x1="168" y1="244" x2="470" y2="496" gradientUnits="userSpaceOnUse">
      <stop stop-color="#7D8EA3"/>
      <stop offset="1" stop-color="#5F6F82"/>
    </linearGradient>
    <filter id="shadow" x="118" y="104" width="402" height="460" filterUnits="userSpaceOnUse" color-interpolation-filters="sRGB">
      <feFlood flood-opacity="0" result="BackgroundImageFix"/>
      <feColorMatrix in="SourceAlpha" type="matrix" values="0 0 0 0 0 0 0 0 0 0 0 0 0 0 0 0 0 0 127 0" result="hardAlpha"/>
      <feOffset dy="18"/>
      <feGaussianBlur stdDeviation="20"/>
      <feColorMatrix type="matrix" values="0 0 0 0 0.0941176 0 0 0 0 0.141176 0 0 0 0 0.2 0 0 0 0.18 0"/>
      <feBlend mode="normal" in2="BackgroundImageFix" result="effect1_dropShadow_1_1"/>
      <feBlend mode="normal" in="SourceGraphic" in2="effect1_dropShadow_1_1" result="shape"/>
    </filter>
  </defs>

  <rect width="640" height="640" fill="url(#bgGlow)"/>
  <ellipse cx="320" cy="536" rx="138" ry="32" fill="#DCE5EE"/>

  <g filter="url(#shadow)">
    <path d="M224 288C210 270 181 260 162 275C142 291 145 325 172 337C188 344 208 337 220 322" fill="url(#limbFill)"/>
    <path d="M416 286C430 266 457 256 478 268C501 282 499 319 470 332C449 342 426 333 413 315" fill="url(#limbFill)"/>

    <path d="M260 492C260 471 278 454 300 454H340C362 454 380 471 380 492V500H260V492Z" fill="url(#limbFill)"/>
    <path d="M278 500H304V534C304 550 291 563 274 563C257 563 244 550 244 534C244 515 259 500 278 500Z" fill="url(#limbFill)"/>
    <path d="M336 500H362C381 500 396 515 396 534C396 550 383 563 366 563C349 563 336 550 336 534V500Z" fill="url(#limbFill)"/>

    <path d="M190 168C190 130 221 100 259 100H381C419 100 450 130 450 168V418C450 460 416 494 374 494H266C224 494 190 460 190 418V168Z" fill="url(#bodyFill)"/>
    <path d="M190 168C190 130 221 100 259 100H381C419 100 450 130 450 168V208H190V168Z" fill="url(#capFill)"/>

    <path d="M283 126C298 112 342 112 357 126" stroke="#F7FAF6" stroke-width="8" stroke-linecap="round"/>
    <path d="M320 127V152" stroke="#F7FAF6" stroke-width="8" stroke-linecap="round"/>
    <circle cx="291" cy="145" r="4" fill="#F7FAF6"/>

    <circle cx="281" cy="254" r="8" fill="#EDA646"/>
    <circle cx="359" cy="254" r="8" fill="#EDA646"/>
    <path d="M295 285C307 297 333 297 345 285" stroke="#FBFCF8" stroke-width="8" stroke-linecap="round"/>

    <g opacity="0.8">
      <rect x="236" y="302" width="30" height="30" rx="8" fill="#5B6B80"/>
      <rect x="276" y="302" width="30" height="30" rx="8" fill="#5B6B80"/>
      <rect x="316" y="302" width="30" height="30" rx="8" fill="#5B6B80"/>
      <rect x="356" y="302" width="30" height="30" rx="8" fill="#5B6B80"/>
      <rect x="236" y="342" width="30" height="30" rx="8" fill="#5B6B80"/>
      <rect x="276" y="342" width="30" height="30" rx="8" fill="#5B6B80"/>
      <rect x="356" y="342" width="30" height="30" rx="8" fill="#5B6B80"/>
      <rect x="396" y="342" width="30" height="30" rx="8" fill="#5B6B80"/>
      <rect x="236" y="382" width="30" height="30" rx="8" fill="#5B6B80"/>
      <rect x="276" y="382" width="30" height="30" rx="8" fill="#5B6B80"/>
      <rect x="316" y="382" width="30" height="30" rx="8" fill="#5B6B80"/>
      <rect x="356" y="382" width="30" height="30" rx="8" fill="#5B6B80"/>
      <rect x="396" y="382" width="30" height="30" rx="8" fill="#5B6B80"/>
    </g>

    <path d="M262 276C250 268 243 252 245 236" stroke="url(#limbFill)" stroke-width="18" stroke-linecap="round"/>
    <path d="M378 276C391 267 399 251 398 236" stroke="url(#limbFill)" stroke-width="18" stroke-linecap="round"/>

    <text x="320" y="372" text-anchor="middle" font-family="ui-sans-serif, system-ui, -apple-system, BlinkMacSystemFont, 'Segoe UI', sans-serif" font-size="62" font-weight="700" fill="#F8FBF7">15</text>
    <circle cx="334" cy="404" r="8" fill="#EDA646"/>
  </g>
</svg>
